<svg viewBox="0 0 29 27" fill="none" xmlns="http://www.w3.org/2000/svg">
<g clip-path="url(#clip0_5_913)">
<path d="M16.5808 20.5536V15.9242C16.5808 15.1744 17.2464 15.2544 17.2464 15.2544V20.5536H16.5808Z" fill="white"/>
<path d="M23.1311 16.7647C23.1311 16.7647 22.4603 16.6846 22.4603 17.4344V18.9473C22.4603 19.5183 22.092 19.9346 21.5764 19.9346C21.0608 19.9346 20.6925 19.5183 20.6925 18.9473V16.7647C20.6925 16.7647 20.0296 16.6846 20.0296 17.4344V18.982C20.0296 19.9159 20.6793 20.5936 21.5764 20.5936C22.4734 20.5936 23.1284 19.8999 23.1284 18.982V16.7647H23.1311Z" fill="white"/>
<path d="M18.4486 17.4264H19.6455V16.778H18.4486V15.2544C18.4486 15.2544 17.783 15.1744 17.783 15.9242C17.783 16.8447 17.783 17.1009 17.7857 18.6191V19.3689C17.7857 20.108 18.2276 20.5509 18.9668 20.5509H19.6455V19.8892H18.9116C18.6117 19.8892 18.4512 19.7131 18.4512 19.3982V17.4237L18.4486 17.4264Z" fill="white"/>
<path d="M14.2843 16.7727C13.2373 16.7727 12.4507 17.5999 12.4507 18.6992C12.4507 19.7985 13.2399 20.6257 14.2843 20.6257C14.721 20.6257 15.034 20.4682 15.2524 20.3161V19.505L15.1971 19.561C14.8999 19.8599 14.6368 19.9826 14.2843 19.9826C13.724 19.9826 13.1216 19.4676 13.1216 18.6992C13.1216 17.9307 13.7345 17.4077 14.2843 17.4077C15.013 17.4077 15.4628 18.0775 15.4628 18.6992V19.2915V20.156V20.5536H16.1205V18.6992C16.1205 17.6025 15.3313 16.7727 14.2843 16.7727Z" fill="white"/>
<path d="M27.1665 16.7781C26.1195 16.7781 25.3329 17.6052 25.3329 18.7046C25.3329 19.8039 26.1221 20.631 27.1665 20.631C27.6005 20.631 27.9451 20.4442 28.1635 20.2948V19.4837L28.0793 19.5691C27.782 19.8706 27.519 19.9906 27.1665 19.9906C26.6035 19.9906 26.0037 19.4757 26.0037 18.7072C26.0037 17.9388 26.6167 17.4158 27.1665 17.4158C27.8951 17.4158 28.345 18.0855 28.345 18.7072V19.2996V20.1641V20.5617H29.0026V18.7072C29.0026 17.6106 28.2134 16.7807 27.1691 16.7807L27.1665 16.7781Z" fill="white"/>
<path d="M10.2621 16.7727C9.21771 16.7727 8.42852 17.5999 8.42852 18.6992V20.5536H9.08618V20.156V19.2942V18.7018C9.08618 18.0801 9.53601 17.4104 10.2647 17.4104C10.9934 17.4104 11.4432 18.0801 11.4432 18.7018V19.2942V20.1587V20.5563H12.1009V18.7018C12.1009 17.6052 11.3117 16.7754 10.2673 16.7754L10.2621 16.7727Z" fill="white"/>
<path d="M25.1593 16.7886C24.8726 16.7886 24.5806 16.9006 24.3438 17.1034V16.7886H23.6861V20.5721H24.3438V18.8084C24.3438 17.5704 24.7805 17.4503 25.1882 17.4503H25.3645V16.7886H25.1593Z" fill="white"/>
<path d="M6.09515 20.6257C5.04554 20.6257 4.19058 19.7611 4.19058 18.6992C4.19058 17.6372 5.04554 16.7727 6.09515 16.7727C7.14477 16.7727 8.00762 17.6372 8.00762 18.6992C8.00762 19.7611 7.15003 20.6257 6.09515 20.6257ZM6.09515 17.3971C5.41119 17.3971 4.8535 17.9814 4.8535 18.6992C4.8535 19.4169 5.41119 19.9933 6.09515 19.9933C6.77912 19.9933 7.33944 19.4116 7.33944 18.6992C7.33944 17.9868 6.78175 17.3971 6.09515 17.3971Z" fill="white"/>
<path d="M1.92036 19.9933C1.2285 19.9933 0.668179 19.4116 0.668179 18.6992C0.668179 17.9868 1.23113 17.3971 1.92036 17.3971C2.47805 17.3971 2.95156 17.776 3.11203 18.2989H3.80651C3.62237 17.4291 2.84634 16.7727 1.92036 16.7727C0.860214 16.7727 0 17.6372 0 18.6992C0 19.7611 0.860214 20.6257 1.92036 20.6257C2.85423 20.6257 3.63552 19.9586 3.81177 19.0754H3.11992C2.96471 19.6064 2.48594 19.9959 1.92036 19.9959V19.9933Z" fill="white"/>
<path d="M17.5805 5.67536C16.0337 5.67536 14.7736 4.40261 14.7736 2.83635C14.7736 1.27009 16.031 0 17.5805 0C19.1299 0 20.3979 1.27275 20.3979 2.83902C20.3979 4.40528 19.1325 5.67803 17.5805 5.67803V5.67536ZM17.5805 0.917877C16.5703 0.917877 15.7495 1.77972 15.7495 2.83635C15.7495 3.89297 16.5703 4.74414 17.5805 4.74414C18.5906 4.74414 19.4114 3.88764 19.4114 2.83635C19.4114 1.78506 18.5906 0.917877 17.5805 0.917877Z" fill="white"/>
<path d="M11.4274 4.74634C10.4094 4.74634 9.58073 3.88983 9.58073 2.83854C9.58073 1.78725 10.4094 0.920074 11.4274 0.920074C12.2482 0.920074 12.9453 1.48041 13.1847 2.25153H14.2054C13.9344 0.968103 12.7901 0.00219727 11.4248 0.00219727C9.86484 0.00219727 8.59425 1.27495 8.59425 2.84121C8.59425 4.40747 9.86484 5.68023 11.4248 5.68023C12.8032 5.68023 13.9555 4.69564 14.2133 3.39354H13.1952C12.9663 4.178 12.2587 4.75168 11.4274 4.75168V4.74634Z" fill="white"/>
<path d="M20.4031 6.86536C20.0322 6.828 19.6587 6.80933 19.2798 6.80933C18.901 6.80933 18.5275 6.828 18.1566 6.86536C18.1645 7.0975 18.2276 7.31629 18.3328 7.5004C18.5406 7.48172 18.7511 7.47105 18.9615 7.46305C18.9326 10.0566 16.9438 12.1485 14.4947 12.1485C12.0456 12.1485 10.0569 10.0566 10.0279 7.46305C10.2436 7.46838 10.4567 7.48172 10.6672 7.5004C10.7724 7.31629 10.8355 7.10016 10.8434 6.86536C10.4725 6.828 10.099 6.80933 9.72015 6.80933C9.34134 6.80933 8.9678 6.828 8.59688 6.86536C8.60477 7.0975 8.6679 7.31629 8.77313 7.5004C8.89677 7.48973 9.02304 7.48172 9.14668 7.47372C9.18088 10.5769 11.559 13.0797 14.4895 13.0797C17.42 13.0797 19.7981 10.5742 19.8323 7.47372C19.9612 7.48172 20.0901 7.48973 20.219 7.5004C20.3242 7.31629 20.3873 7.10016 20.3952 6.86536H20.4031Z" fill="white"/>
<path d="M5.19285 24.4758H5.09026V23.6967C5.09026 23.5633 5.0508 23.4565 4.97188 23.3712C4.89296 23.2884 4.79563 23.2457 4.67988 23.2457C4.56413 23.2457 4.4668 23.2884 4.38788 23.3712C4.30896 23.4565 4.2695 23.5633 4.2695 23.6967V24.4758H4.16691V22.552H4.2695V23.3498C4.31685 23.2858 4.37473 23.2351 4.44575 23.2004C4.51678 23.1657 4.5957 23.147 4.67988 23.147C4.82456 23.147 4.94557 23.1951 5.04554 23.2938C5.14287 23.3925 5.19285 23.5206 5.19285 23.678V24.4705V24.4758Z" fill="white"/>
<path d="M6.73703 23.8274C6.73703 24.0115 6.67389 24.1716 6.54762 24.305C6.42135 24.4384 6.26878 24.5051 6.08726 24.5051C5.90575 24.5051 5.75054 24.4384 5.62427 24.3077C5.50063 24.177 5.4375 24.0169 5.4375 23.8274C5.4375 23.638 5.50063 23.4805 5.62427 23.3498C5.74791 23.2191 5.90312 23.1523 6.08463 23.1523C6.26615 23.1523 6.42135 23.2191 6.54762 23.3498C6.67389 23.4805 6.7344 23.6406 6.7344 23.8274H6.73703ZM6.62654 23.8274C6.62654 23.6727 6.57393 23.5366 6.47134 23.4218C6.36611 23.3044 6.23721 23.2484 6.08463 23.2484C5.93206 23.2484 5.80316 23.3071 5.69793 23.4218C5.59271 23.5366 5.54009 23.6727 5.54009 23.8301C5.54009 23.9875 5.59271 24.1183 5.6953 24.2357C5.7979 24.3504 5.9268 24.4091 6.082 24.4091C6.23721 24.4091 6.36611 24.3531 6.4687 24.2383C6.5713 24.1236 6.62391 23.9902 6.62391 23.8327L6.62654 23.8274Z" fill="white"/>
<path d="M8.15756 24.4571C8.15756 24.6546 8.09706 24.812 7.97868 24.9267C7.8603 25.0415 7.7051 25.0975 7.51043 25.0975C7.38416 25.0975 7.26052 25.0762 7.13951 25.0335L7.17108 24.9374C7.21843 24.9561 7.27104 24.9694 7.33155 24.9828C7.38942 24.9961 7.44467 25.0014 7.49728 25.0014C7.68142 25.0014 7.81821 24.9534 7.91292 24.86C8.00762 24.7666 8.05234 24.6065 8.05234 24.3877V23.8274C8.05234 23.67 8.00236 23.5366 7.90239 23.4218C7.80243 23.3071 7.67879 23.2484 7.52885 23.2484C7.39205 23.2484 7.27368 23.3044 7.16845 23.4165C7.06323 23.5286 7.01061 23.6646 7.01061 23.8301C7.01061 23.9955 7.06323 24.1316 7.16845 24.241C7.27368 24.3504 7.39468 24.4064 7.52885 24.4064C7.6104 24.4064 7.68142 24.3904 7.74456 24.3611C7.80769 24.3317 7.8682 24.2837 7.9287 24.2196V24.3397C7.87083 24.3904 7.81032 24.4304 7.74982 24.4598C7.68931 24.4891 7.61566 24.5051 7.52885 24.5051C7.35522 24.5051 7.20791 24.4411 7.0869 24.313C6.96589 24.185 6.90539 24.0222 6.90539 23.8301C6.90539 23.638 6.96589 23.4725 7.08427 23.3445C7.20265 23.2164 7.35259 23.1523 7.52885 23.1523C7.7051 23.1523 7.84978 23.2164 7.97079 23.3445C8.0918 23.4725 8.1523 23.6326 8.1523 23.8274V24.4598L8.15756 24.4571Z" fill="white"/>
<path d="M9.64386 24.4758H9.54127V23.8274C9.54127 23.67 9.49129 23.5339 9.39132 23.4191C9.29136 23.3044 9.16772 23.2457 9.01778 23.2457C8.88098 23.2457 8.7626 23.3017 8.65738 23.4138C8.55216 23.5259 8.49954 23.662 8.49954 23.8274C8.49954 23.9928 8.55216 24.1289 8.65738 24.2383C8.7626 24.3477 8.88361 24.4037 9.01778 24.4037C9.09932 24.4037 9.17035 24.3877 9.23349 24.3584C9.29662 24.329 9.35713 24.281 9.41763 24.217V24.337C9.35976 24.3877 9.29925 24.4277 9.23875 24.4571C9.17824 24.4865 9.10459 24.5025 9.01778 24.5025C8.84415 24.5025 8.69684 24.4384 8.57583 24.3103C8.45482 24.1823 8.39432 24.0195 8.39432 23.8274C8.39432 23.6353 8.45482 23.4698 8.5732 23.3418C8.69158 23.2137 8.84152 23.1497 9.01778 23.1497C9.19403 23.1497 9.33871 23.2137 9.45972 23.3418C9.58073 23.4698 9.64123 23.6326 9.64123 23.8247V24.4731L9.64386 24.4758Z" fill="white"/>
<path d="M10.5567 23.275H10.4488C10.3462 23.275 10.2542 23.3257 10.1753 23.4244C10.0963 23.5232 10.0569 23.6486 10.0569 23.798V24.4784H9.95428V23.179H10.0569V23.4298C10.0911 23.3604 10.1437 23.299 10.2147 23.251C10.2857 23.203 10.3594 23.179 10.4383 23.179H10.5567V23.2777V23.275Z" fill="white"/>
<path d="M11.9614 23.8541C11.9614 24.0302 11.8983 24.1796 11.772 24.3103C11.6458 24.4411 11.4906 24.5024 11.3117 24.5024C11.1144 24.5024 10.9487 24.4384 10.8198 24.3103C10.6909 24.1823 10.6251 24.0222 10.6251 23.8274C10.6251 23.6326 10.6856 23.4778 10.8092 23.3444C10.9329 23.2137 11.0933 23.147 11.288 23.147C11.409 23.147 11.5195 23.1763 11.6195 23.2324C11.7194 23.2884 11.7983 23.3658 11.8562 23.4645L10.9408 24.0942L10.875 24.0088L11.701 23.4431C11.5958 23.3097 11.459 23.243 11.2854 23.243C11.1249 23.243 10.9907 23.3017 10.8855 23.4191C10.7803 23.5365 10.7251 23.6726 10.7251 23.8327C10.7251 23.9928 10.7777 24.1236 10.8855 24.2356C10.9907 24.3477 11.1249 24.4037 11.2854 24.4037C11.4458 24.4037 11.5721 24.3504 11.6826 24.241C11.7931 24.1342 11.8483 24.0035 11.8483 23.8541H11.9588H11.9614Z" fill="white"/>
<path d="M13.1058 24.1422C13.1058 24.2516 13.0663 24.337 12.99 24.393C12.9137 24.449 12.8006 24.4784 12.6559 24.4784H12.1061V24.3796H12.6796C12.7875 24.3796 12.8664 24.361 12.9164 24.3209C12.9663 24.2809 12.9927 24.2302 12.9927 24.1609C12.9927 24.0435 12.9164 23.9581 12.7638 23.9047C12.6217 23.8647 12.4797 23.8273 12.3376 23.7873C12.1824 23.7286 12.1061 23.6299 12.1061 23.4938C12.1061 23.4004 12.1351 23.3257 12.1903 23.267C12.2482 23.2056 12.3271 23.1763 12.4323 23.1763H13.0058V23.275H12.4402C12.3797 23.275 12.3271 23.2937 12.285 23.331C12.2403 23.3684 12.2192 23.4217 12.2192 23.4885C12.2192 23.5925 12.2929 23.6646 12.4402 23.7073C12.5875 23.7499 12.7322 23.79 12.8769 23.8273C13.0321 23.8887 13.1084 23.9928 13.1084 24.1395L13.1058 24.1422Z" fill="white"/>
<path d="M15.3313 24.4758H15.2287V23.8274C15.2287 23.67 15.1787 23.5339 15.0787 23.4191C14.9788 23.3044 14.8551 23.2457 14.7052 23.2457C14.5684 23.2457 14.45 23.3017 14.3448 23.4138C14.2396 23.5259 14.187 23.662 14.187 23.8274C14.187 23.9928 14.2396 24.1289 14.3448 24.2383C14.45 24.3477 14.571 24.4037 14.7052 24.4037C14.7867 24.4037 14.8578 24.3877 14.9209 24.3584C14.984 24.329 15.0445 24.281 15.105 24.217V24.337C15.0472 24.3877 14.9867 24.4277 14.9262 24.4571C14.8657 24.4865 14.792 24.5025 14.7052 24.5025C14.5316 24.5025 14.3842 24.4384 14.2632 24.3103C14.1422 24.1823 14.0817 24.0195 14.0817 23.8274C14.0817 23.6353 14.1422 23.4698 14.2606 23.3418C14.379 23.2137 14.5289 23.1497 14.7052 23.1497C14.8814 23.1497 15.0261 23.2137 15.1471 23.3418C15.2681 23.4698 15.3286 23.6326 15.3286 23.8247V24.4731L15.3313 24.4758Z" fill="white"/>
<path d="M16.6361 24.4758H16.5335V22.552H16.6361V24.4758Z" fill="white"/>
<path d="M18.1987 24.4758H18.0961V23.8274C18.0961 23.67 18.0461 23.5339 17.9461 23.4191C17.8462 23.3044 17.7225 23.2457 17.5726 23.2457C17.4358 23.2457 17.3174 23.3017 17.2122 23.4138C17.1069 23.5259 17.0543 23.662 17.0543 23.8274C17.0543 23.9928 17.1069 24.1289 17.2122 24.2383C17.3174 24.3477 17.4384 24.4037 17.5726 24.4037C17.6541 24.4037 17.7251 24.3877 17.7883 24.3584C17.8514 24.329 17.9119 24.281 17.9724 24.217V24.337C17.9146 24.3877 17.854 24.4277 17.7935 24.4571C17.733 24.4865 17.6594 24.5025 17.5726 24.5025C17.3989 24.5025 17.2516 24.4384 17.1306 24.3103C17.0096 24.1823 16.9491 24.0195 16.9491 23.8274C16.9491 23.6353 17.0096 23.4698 17.128 23.3418C17.2464 23.2137 17.3963 23.1497 17.5726 23.1497C17.7488 23.1497 17.8935 23.2137 18.0145 23.3418C18.1355 23.4698 18.196 23.6326 18.196 23.8247V24.4731L18.1987 24.4758Z" fill="white"/>
<path d="M20.4926 24.4758H20.39V23.8274C20.39 23.67 20.34 23.5339 20.24 23.4191C20.1401 23.3044 20.0164 23.2457 19.8665 23.2457C19.7297 23.2457 19.6113 23.3017 19.5061 23.4138C19.4008 23.5259 19.3482 23.662 19.3482 23.8274C19.3482 23.9928 19.4008 24.1289 19.5061 24.2383C19.6113 24.3477 19.7323 24.4037 19.8665 24.4037C19.948 24.4037 20.019 24.3877 20.0822 24.3584C20.1453 24.329 20.2058 24.281 20.2663 24.217V24.337C20.2085 24.3877 20.1479 24.4277 20.0874 24.4571C20.0269 24.4865 19.9533 24.5025 19.8665 24.5025C19.6928 24.5025 19.5455 24.4384 19.4245 24.3103C19.3035 24.1823 19.243 24.0195 19.243 23.8274C19.243 23.6353 19.3035 23.4698 19.4219 23.3418C19.5403 23.2137 19.6902 23.1497 19.8665 23.1497C20.0427 23.1497 20.1874 23.2137 20.3084 23.3418C20.4294 23.4698 20.4899 23.6326 20.4899 23.8247V24.4731L20.4926 24.4758Z" fill="white"/>
<path d="M20.9871 24.4758H20.8845V22.552H20.9871V24.4758Z" fill="white"/>
<path d="M21.9289 24.4758H21.7474C21.6264 24.4758 21.5317 24.4438 21.4685 24.3771C21.4054 24.3104 21.3738 24.2197 21.3738 24.1049V22.8188H21.4764V23.1764H21.9289V23.2751H21.4764V24.1156C21.4764 24.1957 21.4975 24.2597 21.5422 24.3077C21.5869 24.3558 21.6474 24.3771 21.7263 24.3771H21.9289V24.4758Z" fill="white"/>
<path d="M23.1337 23.9663C23.1337 24.1237 23.0837 24.2518 22.9864 24.3505C22.8864 24.4519 22.7654 24.4999 22.6207 24.4999C22.4761 24.4999 22.355 24.4492 22.2551 24.3505C22.1551 24.2518 22.1078 24.121 22.1078 23.9636V23.1711H22.2104V23.9503C22.2104 24.0837 22.2498 24.1931 22.3261 24.2758C22.405 24.3585 22.5024 24.4012 22.6207 24.4012C22.7391 24.4012 22.8338 24.3612 22.9127 24.2785C22.9917 24.1958 23.0311 24.0864 23.0311 23.9503V23.1711H23.1337V23.9636V23.9663Z" fill="white"/>
<path d="M24.0413 23.275H23.9334C23.8308 23.275 23.7388 23.3257 23.6598 23.4244C23.5809 23.5232 23.5415 23.6486 23.5415 23.798V24.4784H23.4389V23.179H23.5415V23.4298C23.5757 23.3604 23.6283 23.299 23.6993 23.251C23.7703 23.203 23.844 23.179 23.9229 23.179H24.0413V23.2777V23.275Z" fill="white"/>
<path d="M25.3461 24.4758H25.2435V23.8274C25.2435 23.67 25.1935 23.5339 25.0935 23.4191C24.9936 23.3044 24.8699 23.2457 24.72 23.2457C24.5832 23.2457 24.4648 23.3017 24.3596 23.4138C24.2543 23.5259 24.2017 23.662 24.2017 23.8274C24.2017 23.9928 24.2543 24.1289 24.3596 24.2383C24.4648 24.3477 24.5858 24.4037 24.72 24.4037C24.8015 24.4037 24.8725 24.3877 24.9357 24.3584C24.9988 24.329 25.0593 24.281 25.1198 24.217V24.337C25.062 24.3877 25.0014 24.4277 24.9409 24.4571C24.8804 24.4865 24.8068 24.5025 24.72 24.5025C24.5463 24.5025 24.399 24.4384 24.278 24.3103C24.157 24.1823 24.0965 24.0195 24.0965 23.8274C24.0965 23.6353 24.157 23.4698 24.2754 23.3418C24.3938 23.2137 24.5437 23.1497 24.72 23.1497C24.8962 23.1497 25.0409 23.2137 25.1619 23.3418C25.2829 23.4698 25.3434 23.6326 25.3434 23.8247V24.4731L25.3461 24.4758Z" fill="white"/>
<path d="M8.18124 26.3223C8.18124 26.5171 8.12074 26.6799 8.00236 26.808C7.88398 26.936 7.73404 27.0001 7.55778 27.0001C7.38153 27.0001 7.23685 26.936 7.11584 26.808C6.99483 26.6799 6.93433 26.5171 6.93433 26.325C6.93433 26.1329 6.99483 25.9675 7.11321 25.8394C7.23159 25.7113 7.3789 25.6473 7.55778 25.6473C7.64722 25.6473 7.72088 25.6633 7.77876 25.6926C7.83663 25.722 7.89713 25.762 7.95764 25.8127V25.9354C7.89713 25.8714 7.83663 25.8234 7.77613 25.7914C7.71562 25.7593 7.64196 25.7433 7.55778 25.7433C7.42099 25.7433 7.30261 25.7994 7.19739 25.9114C7.09216 26.0235 7.03955 26.1596 7.03955 26.325C7.03955 26.4904 7.09216 26.6265 7.19739 26.7359C7.30261 26.8453 7.42362 26.9013 7.55778 26.9013C7.70773 26.9013 7.834 26.8453 7.93133 26.7306C8.02867 26.6158 8.08128 26.4824 8.08128 26.325V25.0522H8.18387V26.325L8.18124 26.3223Z" fill="white"/>
<path d="M9.76751 26.3516C9.76751 26.5277 9.70437 26.6771 9.5781 26.8079C9.45183 26.936 9.29663 27 9.11775 27C8.92045 27 8.75472 26.936 8.62582 26.8079C8.49692 26.6798 8.43115 26.5197 8.43115 26.3249C8.43115 26.1302 8.49166 25.9754 8.6153 25.842C8.73894 25.7112 8.8994 25.6445 9.09407 25.6445C9.21508 25.6445 9.32557 25.6739 9.42553 25.7299C9.52549 25.7859 9.60441 25.8633 9.66228 25.9621L8.74683 26.5918L8.68106 26.5064L9.50708 25.9407C9.40185 25.8073 9.26506 25.7406 9.09144 25.7406C8.93097 25.7406 8.79681 25.7993 8.69158 25.9167C8.58636 26.0341 8.53112 26.1702 8.53112 26.3303C8.53112 26.4904 8.58373 26.6211 8.69158 26.7332C8.79681 26.8452 8.93097 26.9013 9.09144 26.9013C9.25191 26.9013 9.37818 26.8479 9.48866 26.7385C9.59915 26.6318 9.65439 26.501 9.65439 26.3516H9.76488H9.76751Z" fill="white"/>
<path d="M11.3406 26.9734H11.1591C11.0381 26.9734 10.9434 26.9414 10.8803 26.8747C10.8171 26.808 10.7856 26.7172 10.7856 26.6025V25.3164H10.8882V25.674H11.3406V25.7727H10.8882V26.6132C10.8882 26.6932 10.9092 26.7573 10.9539 26.8053C10.9986 26.8533 11.0591 26.8747 11.1381 26.8747H11.3406V26.9734Z" fill="white"/>
<path d="M12.5428 26.4636C12.5428 26.621 12.4928 26.7491 12.3955 26.8478C12.2982 26.9465 12.1745 26.9972 12.0298 26.9972C11.8852 26.9972 11.7641 26.9465 11.6642 26.8478C11.5642 26.7491 11.5169 26.6184 11.5169 26.4609V25.6685H11.6195V26.4476C11.6195 26.581 11.6589 26.6904 11.7352 26.7731C11.8141 26.8558 11.9115 26.8985 12.0298 26.8985C12.1482 26.8985 12.2429 26.8585 12.3218 26.7758C12.4008 26.6931 12.4402 26.5837 12.4402 26.4476V25.6685H12.5428V26.4609V26.4636Z" fill="white"/>
<path d="M13.7818 26.637C13.7818 26.7464 13.7424 26.8318 13.6661 26.8879C13.5898 26.9439 13.4767 26.9732 13.332 26.9732H12.7822V26.8745H13.3557C13.4635 26.8745 13.5425 26.8558 13.5924 26.8158C13.6424 26.7758 13.6687 26.7251 13.6687 26.6557C13.6687 26.5383 13.5924 26.4529 13.4399 26.3996C13.2978 26.3596 13.1558 26.3222 13.0137 26.2822C12.8585 26.2235 12.7822 26.1247 12.7822 25.9887C12.7822 25.8953 12.8111 25.8206 12.8664 25.7619C12.9243 25.7005 13.0032 25.6711 13.1084 25.6711H13.6819V25.7699H13.1163C13.0558 25.7699 13.0032 25.7885 12.9611 25.8259C12.9164 25.8633 12.8953 25.9166 12.8953 25.9833C12.8953 26.0874 12.969 26.1594 13.1163 26.2021C13.2636 26.2448 13.4083 26.2848 13.553 26.3222C13.7082 26.3836 13.7845 26.4876 13.7845 26.6344L13.7818 26.637Z" fill="white"/>
<path d="M15.7706 26.637C15.7706 26.7464 15.7311 26.8318 15.6548 26.8879C15.5786 26.9439 15.4654 26.9732 15.3208 26.9732H14.771V26.8745H15.3444C15.4523 26.8745 15.5312 26.8558 15.5812 26.8158C15.6312 26.7758 15.6575 26.7251 15.6575 26.6557C15.6575 26.5383 15.5812 26.4529 15.4286 26.3996C15.2866 26.3596 15.1445 26.3222 15.0025 26.2822C14.8472 26.2235 14.771 26.1247 14.771 25.9887C14.771 25.8953 14.7999 25.8206 14.8551 25.7619C14.913 25.7005 14.9919 25.6711 15.0972 25.6711H15.6706V25.7699H15.105C15.0445 25.7699 14.9919 25.7885 14.9498 25.8259C14.9051 25.8633 14.8841 25.9166 14.8841 25.9833C14.8841 26.0874 14.9577 26.1594 15.105 26.2021C15.2524 26.2448 15.397 26.2848 15.5417 26.3222C15.6969 26.3836 15.7732 26.4876 15.7732 26.6344L15.7706 26.637Z" fill="white"/>
<path d="M17.0386 26.4636C17.0386 26.621 16.9886 26.7491 16.8912 26.8478C16.7939 26.9465 16.6703 26.9972 16.5256 26.9972C16.3809 26.9972 16.2599 26.9465 16.1599 26.8478C16.06 26.7491 16.0126 26.6184 16.0126 26.4609V25.6685H16.1152V26.4476C16.1152 26.581 16.1547 26.6904 16.231 26.7731C16.3099 26.8558 16.4072 26.8985 16.5256 26.8985C16.644 26.8985 16.7387 26.8585 16.8176 26.7758C16.8965 26.6931 16.936 26.5837 16.936 26.4476V25.6685H17.0386V26.4609V26.4636Z" fill="white"/>
<path d="M18.6196 26.3516C18.6196 26.5277 18.5564 26.6771 18.4302 26.8079C18.3039 26.9386 18.1487 27 17.9698 27C17.7725 27 17.6068 26.936 17.4779 26.8079C17.349 26.6798 17.2832 26.5197 17.2832 26.3249C17.2832 26.1302 17.3437 25.9754 17.4673 25.842C17.591 25.7112 17.7515 25.6445 17.9461 25.6445C18.0671 25.6445 18.1776 25.6739 18.2776 25.7299C18.3775 25.7859 18.4565 25.8633 18.5143 25.9621L17.5989 26.5918L17.5331 26.5064L18.3591 25.9407C18.2539 25.8073 18.1171 25.7406 17.9435 25.7406C17.783 25.7406 17.6489 25.7993 17.5436 25.9167C17.4384 26.0341 17.3832 26.1702 17.3832 26.3303C17.3832 26.4904 17.4358 26.6211 17.5436 26.7332C17.6489 26.8452 17.783 26.9013 17.9435 26.9013C18.104 26.9013 18.2302 26.8479 18.3407 26.7385C18.4512 26.6318 18.5064 26.501 18.5064 26.3516H18.6169H18.6196Z" fill="white"/>
<path d="M19.8507 26.9733H19.7481V26.1941C19.7481 26.0607 19.7086 25.954 19.6297 25.8686C19.5508 25.7859 19.4535 25.7432 19.3377 25.7432C19.222 25.7432 19.1246 25.7859 19.0457 25.8686C18.9668 25.954 18.9273 26.0607 18.9273 26.1941V26.9733H18.8247V26.1808C18.8247 26.0234 18.8747 25.8926 18.9694 25.7966C19.0668 25.6978 19.1878 25.6498 19.3351 25.6498C19.4824 25.6498 19.6034 25.6978 19.7007 25.7966C19.8007 25.8953 19.8481 26.0234 19.8481 26.1808V26.9733H19.8507ZM19.0247 25.4604H18.9458C18.9484 25.4123 18.9694 25.359 19.0089 25.3029C19.0483 25.2469 19.0983 25.2202 19.1641 25.2202C19.2036 25.2202 19.2667 25.2442 19.3482 25.2949C19.4298 25.3456 19.4903 25.3696 19.5298 25.3696C19.564 25.367 19.5929 25.3536 19.6139 25.3296C19.635 25.3056 19.6508 25.2709 19.656 25.2202H19.7402C19.7244 25.3003 19.7007 25.359 19.6692 25.399C19.6376 25.439 19.5929 25.4604 19.535 25.4604C19.4745 25.4604 19.4061 25.4337 19.3298 25.3856C19.2535 25.335 19.1957 25.3109 19.1536 25.3109C19.1167 25.3109 19.0878 25.3269 19.0668 25.3563C19.0457 25.3856 19.0326 25.4203 19.0247 25.463V25.4604Z" fill="white"/>
<path d="M21.3896 26.3223C21.3896 26.5064 21.3265 26.6665 21.2002 26.7999C21.0739 26.9333 20.9213 27 20.7398 27C20.5583 27 20.4031 26.9333 20.2768 26.8026C20.1532 26.6718 20.0901 26.5117 20.0901 26.3223C20.0901 26.1328 20.1532 25.9754 20.2768 25.8447C20.4031 25.7113 20.5557 25.6472 20.7372 25.6472C20.9187 25.6472 21.0739 25.7139 21.2002 25.8447C21.3265 25.9754 21.387 26.1355 21.387 26.3223H21.3896ZM21.2817 26.3223C21.2817 26.1675 21.2291 26.0314 21.1265 25.9167C21.0213 25.7993 20.8924 25.7433 20.7398 25.7433C20.5873 25.7433 20.4584 25.802 20.3531 25.9167C20.2479 26.0314 20.1953 26.1675 20.1953 26.325C20.1953 26.4824 20.2479 26.6131 20.3505 26.7305C20.4531 26.8453 20.582 26.904 20.7372 26.904C20.8924 26.904 21.0213 26.8479 21.1239 26.7332C21.2265 26.6185 21.2791 26.485 21.2791 26.3276L21.2817 26.3223Z" fill="white"/>
<path d="M22.5734 26.637C22.5734 26.7464 22.5339 26.8318 22.4576 26.8879C22.3813 26.9439 22.2682 26.9732 22.1235 26.9732H21.5737V26.8745H22.1472C22.2551 26.8745 22.334 26.8558 22.384 26.8158C22.434 26.7758 22.4603 26.7251 22.4603 26.6557C22.4603 26.5383 22.384 26.4529 22.2314 26.3996C22.0893 26.3596 21.9473 26.3222 21.8052 26.2822C21.65 26.2235 21.5737 26.1247 21.5737 25.9887C21.5737 25.8953 21.6027 25.8206 21.6579 25.7619C21.7158 25.7005 21.7947 25.6711 21.8999 25.6711H22.4734V25.7699H21.9078C21.8473 25.7699 21.7947 25.7885 21.7526 25.8259C21.7079 25.8633 21.6869 25.9166 21.6869 25.9833C21.6869 26.0874 21.7605 26.1594 21.9078 26.2021C22.0551 26.2448 22.1998 26.2848 22.3445 26.3222C22.4997 26.3836 22.576 26.4876 22.576 26.6344L22.5734 26.637Z" fill="white"/>
</g>
<defs>
<clipPath id="clip0_5_913">
<rect width="29" height="27" fill="white"/>
</clipPath>
</defs>
</svg>
