<svg width="97" height="82" viewBox="0 0 97 82" fill="none" xmlns="http://www.w3.org/2000/svg">
<g clip-path="url(#clip0_5_865)">
<g opacity="0.03">
<path d="M45.1182 10.4006C28.3892 15.0038 17.4069 28.8134 14.8673 46.0319C17.7407 45.1797 20.7809 44.6694 23.9932 44.6694C34.1307 44.6694 40.8943 51.9977 40.8943 63.0822C40.8943 74.1667 32.6132 82.0053 21.125 82.0053C8.78689 82.0053 0 71.2627 0 55.4119C0 42.6282 3.88501 31.0334 11.8271 20.8064C19.7692 10.5689 30.0788 3.5826 42.9228 0L45.1182 10.4006ZM92.7708 63.0769C92.7708 74.1562 84.6566 82 72.9964 82C60.6635 82 52.0434 71.2575 52.0434 55.4067C52.0434 42.623 55.9284 31.0282 63.8705 20.8012C71.651 10.5689 81.9606 3.5826 94.9715 0L97 10.4006C80.271 15.0038 69.1166 28.8134 66.9212 46.0319C69.6277 45.1797 72.6679 44.6694 75.8802 44.6694C86.0177 44.6694 92.7812 51.9977 92.7812 63.0822L92.7708 63.0769Z" fill="white"/>
</g>
</g>
<defs>
<clipPath id="clip0_5_865">
<rect width="97" height="82" fill="white"/>
</clipPath>
</defs>
</svg>
