<svg viewBox="0 0 304 358" fill="none" xmlns="http://www.w3.org/2000/svg">
<g clip-path="url(#clip0_2_751)">
<path d="M150.038 172.071C148.053 176.501 147.223 180.442 148.186 180.873C149.149 181.304 151.539 178.063 153.524 173.633C155.509 169.203 156.338 165.262 155.376 164.83C154.413 164.399 152.023 167.641 150.038 172.071Z" stroke="#252930" stroke-width="0.9" stroke-miterlimit="10"/>
<path d="M149.35 172.534C148.658 177.952 149.191 182.483 150.538 182.655C151.886 182.827 153.539 178.574 154.23 173.156C154.921 167.738 154.389 163.206 153.041 163.034C151.694 162.862 150.041 167.115 149.35 172.534Z" stroke="#252930" stroke-width="0.9" stroke-miterlimit="10"/>
<path d="M149.355 162.161C147.616 162.558 147.295 167.651 148.639 173.536C149.982 179.421 152.481 183.87 154.22 183.473C155.959 183.076 156.28 177.983 154.937 172.098C153.593 166.213 151.094 161.764 149.355 162.161Z" stroke="#252930" stroke-width="0.9" stroke-miterlimit="10"/>
<path d="M144.299 162.993C142.482 164.372 144.357 169.902 148.488 175.343C152.618 180.785 157.439 184.078 159.256 182.699C161.073 181.32 159.198 175.791 155.067 170.349C150.937 164.908 146.115 161.614 144.299 162.993Z" stroke="#252930" stroke-width="0.9" stroke-miterlimit="10"/>
<path d="M138.365 166.138C137.148 168.579 142.167 173.553 149.576 177.247C156.985 180.941 163.978 181.956 165.195 179.515C166.413 177.073 161.394 172.099 153.985 168.405C146.576 164.711 139.583 163.696 138.365 166.138Z" stroke="#252930" stroke-width="0.9" stroke-miterlimit="10"/>
<path d="M132.46 171.874C132.309 174.935 140.834 177.846 151.502 178.375C162.17 178.904 170.941 176.852 171.093 173.79C171.245 170.729 162.72 167.818 152.052 167.289C141.384 166.759 132.612 168.812 132.46 171.874Z" stroke="#252930" stroke-width="0.9" stroke-miterlimit="10"/>
<path d="M150.031 166.935C136.622 170.943 126.539 176.825 127.51 180.074C128.481 183.323 140.138 182.708 153.547 178.701C166.956 174.693 177.039 168.811 176.068 165.562C175.097 162.313 163.44 162.928 150.031 166.935Z" stroke="#252930" stroke-width="0.9" stroke-miterlimit="10"/>
<path d="M147.997 167.01C132.982 176.805 122.508 187.348 124.602 190.558C126.697 193.768 140.566 188.43 155.581 178.635C170.595 168.839 181.069 158.296 178.975 155.086C176.88 151.876 163.011 157.215 147.997 167.01Z" stroke="#252930" stroke-width="0.9" stroke-miterlimit="10"/>
<path d="M145.69 167.37C130.971 183.814 121.765 199.585 125.127 202.594C128.489 205.603 143.147 194.712 157.865 178.267C172.584 161.823 181.79 146.053 178.428 143.043C175.065 140.034 160.408 150.926 145.69 167.37Z" stroke="#252930" stroke-width="0.9" stroke-miterlimit="10"/>
<path d="M142.802 168.292C131.096 191.485 125.628 212.316 130.588 214.82C135.548 217.323 149.058 200.551 160.764 177.358C172.469 154.165 177.938 133.334 172.978 130.831C168.017 128.327 154.507 145.099 142.802 168.292Z" stroke="#252930" stroke-width="0.9" stroke-miterlimit="10"/>
<path d="M139.09 170.521C133.836 199.435 135.254 223.905 142.259 225.178C149.263 226.451 159.2 204.044 164.455 175.131C169.709 146.217 168.291 121.746 161.287 120.473C154.283 119.2 144.345 141.608 139.09 170.521Z" stroke="#252930" stroke-width="0.9" stroke-miterlimit="10"/>
<path d="M142.404 114.721C133.2 116.208 129.943 143.424 135.129 175.51C140.314 207.596 151.978 232.4 161.181 230.913C170.384 229.426 173.641 202.21 168.456 170.124C163.271 138.038 151.607 113.233 142.404 114.721Z" stroke="#252930" stroke-width="0.9" stroke-miterlimit="10"/>
<path d="M115.949 117.298C105.838 123.824 113.685 153.972 133.476 184.634C153.267 215.297 177.507 234.863 187.619 228.337C197.73 221.811 189.882 191.664 170.091 161.001C150.3 130.338 126.06 110.772 115.949 117.298Z" stroke="#252930" stroke-width="0.9" stroke-miterlimit="10"/>
<path d="M83.9357 132.315C76.459 144.832 100.775 173.123 138.246 195.505C175.718 217.887 212.156 225.884 219.632 213.367C227.109 200.849 202.793 172.558 165.322 150.176C127.85 127.794 91.4124 119.797 83.9357 132.315Z" stroke="#252930" stroke-width="0.9" stroke-miterlimit="10"/>
<path d="M51.2261 161.337C49.3529 177.727 92.8546 196.159 148.39 202.506C203.925 208.853 250.464 200.711 252.337 184.321C254.21 167.931 210.708 149.499 155.173 143.152C99.638 136.805 53.0993 144.947 51.2261 161.337Z" stroke="#252930" stroke-width="0.9" stroke-miterlimit="10"/>
<path d="M143.995 140.757C72.7627 158.017 18.4975 186.372 22.7905 204.09C27.0835 221.808 88.3092 222.18 159.542 204.921C230.774 187.662 285.04 159.307 280.747 141.588C276.454 123.87 215.228 123.498 143.995 140.757Z" stroke="#252930" stroke-width="0.9" stroke-miterlimit="10"/>
<path d="M132.933 140.83C51.5803 188.731 -5.93219 241.891 4.47528 259.567C14.8828 277.242 89.2691 252.739 170.622 204.838C251.974 156.937 309.487 103.776 299.079 86.1009C288.672 68.4255 214.286 92.9284 132.933 140.83Z" stroke="#252930" stroke-width="0.9" stroke-miterlimit="10"/>
<path d="M300.78 22.23C315.33 41.6199 260.42 124.76 178.13 207.93C95.84 291.11 17.34 342.82 2.78001 323.43C-11.77 304.04 43.14 220.9 125.43 137.73C207.72 54.5499 286.23 2.84995 300.78 22.23Z" stroke="#252930" stroke-width="0.9" stroke-miterlimit="10"/>
<path d="M150.74 178.97L144.04 355.47" stroke="#252930" stroke-width="0.69" stroke-miterlimit="10"/>
<path d="M141.45 355.24C141.4 356.67 142.51 357.88 143.95 357.94C145.39 358 146.59 356.88 146.65 355.44C146.7 354.01 145.59 352.8 144.15 352.74C142.71 352.68 141.51 353.8 141.45 355.24Z" fill="#252930"/>
<path d="M150.74 178.97L157.45 2.46997" stroke="#252930" stroke-width="0.69" stroke-miterlimit="10"/>
<path d="M160.04 2.68996C160.09 1.25996 158.98 0.0499526 157.54 -0.0100472C156.11 -0.0600473 154.9 1.04995 154.84 2.48995C154.79 3.91995 155.9 5.12996 157.34 5.18996C158.77 5.23996 159.98 4.12996 160.04 2.68996Z" fill="#252930"/>
</g>
<defs>
<clipPath id="clip0_2_751">
<rect width="303.57" height="357.94" fill="white" transform="translate(303.57 357.94) rotate(180)"/>
</clipPath>
</defs>
</svg>
