<svg viewBox="0 0 51 10" fill="none" xmlns="http://www.w3.org/2000/svg">
<g clip-path="url(#clip0_5_885)">
<path d="M23.8856 0.0189637C25.6771 0.0189637 27.4455 -0.0375867 29.2109 0.0409556C30.2852 0.0880809 31.2841 0.502784 31.8706 1.58038C32.8376 3.35858 32.341 6.31177 29.6813 6.72333C28.6592 6.88041 27.6081 6.84586 26.5715 6.88984C26.3159 6.90241 26.0604 6.88984 25.7526 6.88984V8.25333C25.7526 8.7183 25.7439 9.18642 25.7555 9.65139C25.7613 9.88701 25.6945 9.99697 25.4593 9.99069C24.9454 9.97812 24.4314 9.98755 23.8856 9.98755V0.0189637ZM25.7439 5.16191C26.7979 5.16191 27.7881 5.18704 28.7782 5.15563C29.902 5.11793 30.3433 4.68437 30.4217 3.48425C30.4798 2.57944 30.1081 1.81915 29.1557 1.77203C28.0843 1.71862 27.007 1.7626 25.9297 1.75632C25.6568 1.75632 25.6713 1.94482 25.6771 2.13646C25.6974 2.88733 25.7207 3.63505 25.741 4.38591C25.7468 4.64667 25.741 4.90743 25.741 5.16191H25.7439Z" fill="white"/>
<path d="M50.7735 3.19521L47.8321 6.36203L51 9.98754C50.3496 9.98754 49.7688 10.0064 49.1939 9.97183C49.0662 9.96555 48.9326 9.78333 48.8281 9.65766C48.1951 8.91937 47.5621 8.17479 46.9407 7.43963C45.9505 7.97686 45.8605 8.9068 46.0289 9.95613H44.3274V0.034668H45.9767V5.9379C46.1886 5.71799 46.3222 5.57347 46.4587 5.42895C47.0975 4.7472 47.7392 4.06231 48.378 3.38057C48.4477 3.30517 48.5435 3.20463 48.6277 3.20149C49.3246 3.18578 50.0215 3.19207 50.7735 3.19207V3.19521Z" fill="white"/>
<path d="M36.2958 3.21091H38.038V3.98377C38.2093 3.84239 38.3342 3.73871 38.4591 3.64132C39.6583 2.68311 42.26 3.11038 42.7507 5.48235C42.8088 5.8028 42.8378 6.1264 42.8349 6.45313C42.8436 7.51188 42.8349 8.56749 42.8349 9.62624C42.8349 9.7362 42.8233 9.84616 42.8146 9.97183H41.2059V9.56969C41.2059 8.54864 41.2117 7.53073 41.2059 6.50968C41.2001 5.61116 40.8343 4.98596 40.1925 4.75034C39.0979 4.35134 38.0525 5.15247 38.0496 6.39344C38.0496 7.46476 38.0409 8.53293 38.0554 9.60425C38.0584 9.89957 37.9829 10.0127 37.6983 9.99696C37.3237 9.97497 36.9492 9.98439 36.5746 9.99382C36.3858 9.99696 36.2929 9.92784 36.2929 9.71107C36.2987 7.56215 36.2987 5.40695 36.2987 3.21405L36.2958 3.21091Z" fill="white"/>
<path d="M0.034844 0.0283203H1.86996V7.53068C1.86996 8.22185 1.76833 8.15901 2.43908 8.16216H5.90606V9.96235C5.82185 9.97491 5.73764 9.98434 5.65344 9.98748C3.87349 9.98748 2.09354 9.98748 0.313596 9.99376C0.104532 9.9969 0 9.95292 0 9.69216C0.00580733 6.53162 0.008711 3.37108 0.00580733 0.210538C0.0116147 0.147705 0.0203257 0.0880124 0.034844 0.0283203Z" fill="white"/>
<path d="M10.4387 9.99054V0.0439453H12.117V0.395815C12.117 3.44325 12.1112 6.49069 12.1228 9.53499C12.1228 9.90571 12.0183 10.0188 11.6844 9.99368C11.2836 9.96854 10.8858 9.99054 10.4358 9.99054H10.4387Z" fill="white"/>
<path d="M18.2554 5.23088H17.7879C17.1549 5.23088 16.9226 4.97012 16.8993 4.27266C16.8732 3.53751 17.1462 2.97515 17.7356 2.62013C18.325 2.26512 18.9174 2.31853 19.4778 2.72067C19.5359 2.76151 19.5968 2.80235 19.6694 2.85262C20.1573 2.4442 20.706 2.30911 21.2984 2.52588C22.2944 2.89346 22.7125 4.22554 22.1143 5.15548C21.702 5.79324 21.2694 6.41215 20.8164 7.01536C20.2908 7.71596 19.1497 7.76936 18.5602 7.13789C18.3483 6.91168 18.1886 6.63521 17.9563 6.3179C18.296 6.28649 18.5573 6.25193 18.8187 6.24564C18.8884 6.24564 18.9784 6.32733 19.0364 6.39645C19.3616 6.76402 19.9075 6.78602 20.2008 6.3933C20.6218 5.82466 21.0284 5.2403 21.4116 4.64338C21.6701 4.24439 21.5655 3.76685 21.2055 3.4841C21.0458 3.36472 20.8512 3.31131 20.6596 3.33958C20.4679 3.36472 20.2908 3.46839 20.1631 3.62548C19.9859 3.84225 19.8349 4.07788 19.6433 4.35121C19.4981 4.13129 19.3616 3.92708 19.2223 3.71973C18.9203 3.26732 18.4557 3.16365 18.0666 3.45897C17.6949 3.73858 17.6282 4.24439 17.9069 4.69051C18.0085 4.85073 18.1131 5.01096 18.2554 5.23088Z" fill="white"/>
<path d="M8.73133 3.22021V9.97171H7.09076V3.22021H8.73133Z" fill="white"/>
<path d="M15.4156 3.22021V9.97171H13.7663V3.22021H15.4156Z" fill="white"/>
<path d="M34.8614 9.97475H33.2238V3.21069H34.8614V9.97161V9.97475Z" fill="white"/>
<path d="M7.08784 0.0283203H8.72261V2.1898H7.08784V0.0283203Z" fill="white"/>
<path d="M15.4069 2.19604H13.7576V0.0471191H15.4069V2.19604Z" fill="white"/>
<path d="M34.8643 2.20543H33.2325V0.0439453H34.8643V2.20543Z" fill="white"/>
</g>
<defs>
<clipPath id="clip0_5_885">
<rect width="51" height="10" fill="white"/>
</clipPath>
</defs>
</svg>
