<svg  viewBox="0 0 48 9" fill="none" xmlns="http://www.w3.org/2000/svg">
<g clip-path="url(#clip0_5_869)">
<path d="M5.3387 9.00002C4.61563 7.0915 3.93804 5.29992 3.24225 3.4522C3.18313 3.55044 3.13311 3.61125 3.10582 3.68609C2.59649 5.11281 2.06442 6.53017 1.59602 7.97091C1.42321 8.49482 1.19128 8.7521 0.641021 8.64919C0.468212 8.61644 0.286308 8.64451 0.00435638 8.64451C1.04576 5.76769 2.06442 2.97507 3.12856 0.0561523C3.89711 2.02549 4.61108 3.85917 5.34325 5.73027C6.06177 3.85449 6.7712 2.01145 7.52155 0.0561523C8.5766 2.95636 9.58617 5.7443 10.6367 8.63048C10.2092 8.63048 9.83628 8.67258 9.47702 8.60709C9.34514 8.5837 9.21326 8.33578 9.1496 8.16738C8.56295 6.59565 7.9945 5.01457 7.39877 3.368C6.71663 5.23443 6.04813 7.05407 5.34325 8.99534L5.3387 9.00002Z" fill="white"/>
<path d="M40.8375 0C42.8612 1.9974 44.7848 3.90125 46.7494 5.84252V0.383576H48V8.90177C45.99 6.92308 44.0663 5.02859 42.0745 3.06861V8.55094H40.8375V0Z" fill="white"/>
<path d="M33.2839 3.05935V8.54636H32.0925V0.046875C34.0843 2.00685 36.0034 3.90135 37.9862 5.85665V0.374318H39.2095V8.89251C37.2131 6.92317 35.2712 5.01465 33.2839 3.05935Z" fill="white"/>
<path d="M23.0382 6.54414C23.0382 6.75464 23.0382 6.90432 23.0382 7.04933C23.0382 8.15328 22.9791 8.27958 21.9195 8.57896C20.2778 9.04206 18.727 8.83624 17.4674 7.58728C16.235 6.36638 15.9485 4.81805 16.4123 3.17615C17.2582 0.201102 20.637 -0.603472 22.8654 0.855987C22.9836 0.935509 23.0655 1.15536 23.0746 1.31441C23.0928 1.62782 23.0427 1.94123 23.0154 2.33884C22.2242 1.76347 21.4056 1.36586 20.4506 1.40796C19.4683 1.45474 18.6543 1.83364 18.104 2.68967C17.3309 3.88717 17.4719 5.65536 18.4133 6.66108C19.4774 7.79778 20.9417 7.77439 23.0382 6.53946V6.54414Z" fill="white"/>
<path d="M31.3239 8.55565C30.4083 8.60867 29.7777 8.23757 29.4321 7.44235C29.2911 7.12426 29.1456 6.80617 28.9955 6.4647C28.0451 6.4647 27.0992 6.45066 26.1624 6.47873C26.0169 6.47873 25.8122 6.63777 25.7395 6.78278C25.5166 7.20378 25.3074 7.63881 25.1528 8.09255C25.0164 8.49952 24.7936 8.63985 24.3888 8.58372C24.1387 8.55097 23.884 8.57904 23.5202 8.57904C24.8254 5.71158 26.0987 2.9096 27.4266 -0.00463867C28.75 2.89557 30.0233 5.69754 31.3239 8.55097V8.55565ZM28.5135 5.30929C28.1451 4.43923 27.7995 3.61594 27.4403 2.77395C27.0855 3.6253 26.7445 4.44858 26.3852 5.30929H28.5135Z" fill="white"/>
<path d="M15.189 4.66366C13.9384 3.98071 13.0516 4.01813 12.5196 4.75721C12.033 5.43549 12.0921 6.60025 12.6469 7.18029C13.2608 7.82582 14.1749 7.80243 15.2163 7.06802C15.2163 7.47499 15.2436 7.83985 15.2027 8.19069C15.1845 8.32634 15.0298 8.49942 14.8934 8.56023C13.8338 9.04671 12.4332 8.7754 11.6692 7.96148C10.887 7.12416 10.696 5.6226 11.2326 4.53268C11.7374 3.50825 12.8925 2.90014 14.1067 3.07322C15.4801 3.26501 15.2163 3.27436 15.1936 4.66366H15.189Z" fill="white"/>
</g>
<defs>
<clipPath id="clip0_5_869">
<rect width="48" height="9" fill="white"/>
</clipPath>
</defs>
</svg>
