<svg viewBox="0 0 49 17" fill="none" xmlns="http://www.w3.org/2000/svg">
<g clip-path="url(#clip0_5_898)">
<path d="M49 0.216313C46.9987 1.05849 44.9975 1.90066 42.9925 2.73911C33.0166 6.89781 23.0445 11.0602 13.0649 15.2078C10.6543 16.2102 8.18306 17.0374 5.51854 17.0002C3.35432 16.9704 1.56154 16.2176 0.523023 14.2352C-0.197119 12.8564 -0.075832 11.3956 0.2994 9.94976C0.879304 7.7139 2.05427 5.77243 3.48698 3.98001C4.53687 2.66458 5.65498 1.40132 6.83753 0.00390625C6.36755 1.1591 5.93546 2.14661 5.5716 3.15647C5.18879 4.21105 5.08645 5.32153 5.27975 6.42083C5.62466 8.38839 7.16349 9.66655 9.2936 9.8417C10.859 9.97212 12.3788 9.715 13.8836 9.32C25.4096 6.29413 36.9395 3.27572 48.4731 0.257304C48.6475 0.212587 48.8218 0.175322 48.9962 0.138058C48.9962 0.164143 48.9962 0.190228 49 0.216313Z" fill="white"/>
</g>
<defs>
<clipPath id="clip0_5_898">
<rect width="49" height="17" fill="white"/>
</clipPath>
</defs>
</svg>
