<svg viewBox="0 0 175 24" fill="none" xmlns="http://www.w3.org/2000/svg">
<g clip-path="url(#clip0_1_4)">
<path d="M4.25 0.03L8.23 9.12L8.88 7.64C9.95 5.2 9.95 2.43 8.88 0H4.25H0V14.88H4.25V0.03Z" fill="white"/>
<path d="M23.39 0H19.14V23.39H23.39V0Z" fill="white"/>
<path d="M14.49 0L4.24 23.39H8.88L19.14 0H14.49Z" fill="white"/>
<path d="M14.49 23.39H19.13L15.13 14.27L14.48 15.75C13.41 18.19 13.41 20.96 14.48 23.39H14.49Z" fill="white"/>
<path d="M54.15 8.90001C54.15 11.84 52.12 13.57 48.65 13.57H45.91V19.13H43.13V4.23001H48.67C52.11 4.23001 54.15 5.96001 54.15 8.90001ZM51.27 8.90001C51.27 7.33001 50.36 6.38001 48.79 6.38001H45.91V11.41H48.79C50.34 11.41 51.27 10.46 51.27 8.89001V8.90001Z" fill="white"/>
<path d="M64.18 15.53H57.82L56.79 19.13H54.01L58.64 4.23001H63.55L68.16 19.13H65.2L64.17 15.53H64.18ZM63.57 13.37L61.03 4.47001H60.99L58.43 13.37H63.56H63.57Z" fill="white"/>
<path d="M81.92 4.23001V19.13H77.33L72.58 4.47001H72.54L72.64 19.13H69.98V4.23001H74.61L79.36 18.89H79.4L79.28 4.23001H81.92Z" fill="white"/>
<path d="M85.24 4.23001H90.07C94.76 4.23001 97.54 7.01001 97.54 11.68C97.54 16.35 94.76 19.13 90.07 19.13H85.24V4.23001ZM90.23 16.98C93.01 16.98 94.66 15.01 94.66 11.68C94.66 8.35001 93.01 6.38001 90.23 6.38001H88.02V16.97H90.23V16.98Z" fill="white"/>
<path d="M101.89 16.29V19.13H98.93V16.29H101.89Z" fill="white"/>
<path d="M116.77 11.26V19.13H114.15V13.81H114.11C114.11 17.27 112.22 19.33 109 19.33C105.58 19.33 103.46 16.49 103.46 11.68C103.46 6.87 106.02 4.03 110.35 4.03C113.87 4.03 116.21 6.14 116.65 9.67H113.99C113.63 7.54 112.26 6.25 110.35 6.25C107.81 6.25 106.32 8.28 106.32 11.69C106.32 15.1 107.79 17.13 110.27 17.13C112.57 17.13 113.95 15.64 114.08 13.14H110.11V11.27H116.77V11.26Z" fill="white"/>
<path d="M131.41 19.13H128.31L125.07 13.09H122.29V19.13H119.51V4.23001H125.29C128.79 4.23001 130.89 5.82001 130.89 8.48001C130.89 11.36 128.84 13.05 125.35 13.05V13.09C126.98 13.09 128.43 13.86 129.18 15.18L131.42 19.13H131.41ZM125.43 11.06C127.06 11.06 128.01 10.17 128.01 8.68001C128.01 7.19001 127.06 6.38001 125.43 6.38001H122.29V11.05H125.43V11.06Z" fill="white"/>
<path d="M132.61 11.68C132.61 6.87 135.19 4.03 139.54 4.03C143.89 4.03 146.43 6.87 146.43 11.68C146.43 16.49 143.85 19.33 139.54 19.33C135.23 19.33 132.61 16.49 132.61 11.68ZM143.55 11.68C143.55 8.28 142.06 6.24 139.54 6.24C137.02 6.24 135.49 8.27 135.49 11.68C135.49 15.09 136.98 17.12 139.54 17.12C142.1 17.12 143.55 15.09 143.55 11.68Z" fill="white"/>
<path d="M157.88 4.23001H160.5V13.87C160.5 17.29 158.33 19.33 154.66 19.33C150.99 19.33 148.82 17.3 148.82 13.87V4.23001H151.6V14.02C151.6 15.97 152.75 17.12 154.72 17.12C156.69 17.12 157.88 15.97 157.88 14.02V4.23001Z" fill="white"/>
<path d="M174.7 8.90001C174.7 11.84 172.67 13.57 169.2 13.57H166.46V19.13H163.68V4.23001H169.22C172.66 4.23001 174.7 5.96001 174.7 8.90001ZM171.82 8.90001C171.82 7.33001 170.91 6.38001 169.34 6.38001H166.46V11.41H169.34C170.89 11.41 171.82 10.46 171.82 8.89001V8.90001Z" fill="white"/>
<path d="M28.09 4.23001H31.12L34.72 11.63L31.12 19.13H28.09L31.68 11.63L28.09 4.23001Z" fill="white"/>
<path d="M41.36 4.23001H38.33L34.73 11.63L38.33 19.13H41.36L37.77 11.63L41.36 4.23001Z" fill="white"/>
</g>
<defs>
<clipPath id="clip0_1_4">
<rect width="174.7" height="23.39" fill="white"/>
</clipPath>
</defs>
</svg>
