<svg viewBox="0 0 52 11" fill="none" xmlns="http://www.w3.org/2000/svg">
<g clip-path="url(#clip0_5_900)">
<path d="M28.5432 5.21117C28.623 4.78792 28.7075 4.36026 28.7872 3.93702C28.9655 2.98471 29.1438 2.028 29.3221 1.0757C29.3362 0.987519 29.3597 0.921387 29.4817 0.925796C30.3404 0.930204 31.1991 0.930204 32.0578 0.930204C32.0718 0.930204 32.0812 0.939022 32.1094 0.94784V10.0653H30.3451V3.21397C30.3451 3.21397 30.3122 3.21397 30.2981 3.21397C30.2278 3.58431 30.1527 3.95465 30.0823 4.32499C29.782 5.89453 29.4817 7.45966 29.1908 9.0292C29.1673 9.15265 29.1204 9.18792 28.9937 9.18792C28.6324 9.18351 28.2711 9.18351 27.9098 9.18792C27.7878 9.18792 27.7361 9.15706 27.708 9.03361C27.403 7.61397 27.0886 6.19874 26.7789 4.78351C26.671 4.28531 26.5631 3.78712 26.4082 3.29333V10.0653H24.9114V0.921387C25.0334 0.921387 25.146 0.921387 25.2586 0.921387C25.9625 0.921387 26.6616 0.921387 27.3655 0.921387C27.5062 0.921387 27.5625 0.956657 27.5907 1.09333C27.8816 2.44243 28.1819 3.78712 28.4775 5.13622C28.4822 5.15826 28.4916 5.18471 28.4963 5.20676H28.5385L28.5432 5.21117Z" fill="white"/>
<path d="M43.4178 6.05762H41.5221V10.0608H39.8329V0.93457H41.508V4.43076C41.6066 4.43517 41.677 4.44399 41.752 4.44399C42.2072 4.44399 42.6623 4.44399 43.1222 4.44399C43.3161 4.44399 43.4131 4.35581 43.4131 4.17946C43.4131 3.17866 43.4131 2.17345 43.4131 1.17265C43.4131 1.0977 43.4131 1.02275 43.4131 0.93457H45.1352V10.0608H43.4131V6.05762H43.4178Z" fill="white"/>
<path d="M47.7488 0.93457H50.3905C50.9255 3.97665 51.4604 7.00551 52.0047 10.0785C51.9015 10.0785 51.817 10.0785 51.7325 10.0785C51.3149 10.0785 50.902 10.074 50.4844 10.0785C50.3248 10.0785 50.2639 10.0432 50.2404 9.88447C50.1512 9.29369 50.0339 8.70291 49.9401 8.11212C49.9166 7.97545 49.8603 7.93577 49.7195 7.93577C49.194 7.94459 48.6685 7.949 48.1476 7.93577C47.9506 7.93136 47.8942 8.00631 47.8661 8.16944C47.7629 8.7999 47.6456 9.42595 47.5329 10.0652H45.9657C46.5616 7.01874 47.1529 3.98106 47.7488 0.93457ZM48.9453 2.38948C48.9453 2.38948 48.9125 2.38948 48.8937 2.39389C48.6544 3.73417 48.4198 5.07445 48.1758 6.42355H49.6398C49.4052 5.06563 49.1752 3.72535 48.9406 2.38948H48.9453Z" fill="white"/>
<path d="M34.723 0.921387C35.1828 0.921387 35.6239 0.921387 36.065 0.921387C36.4404 0.921387 36.8157 0.921387 37.1911 0.921387C37.3131 0.921387 37.3741 0.952249 37.3929 1.07129C37.7448 3.10816 38.1061 5.14503 38.4627 7.18191C38.6176 8.06808 38.7771 8.95425 38.9367 9.84042C38.9507 9.91097 38.9554 9.9771 38.9648 10.0609H37.2521C37.1536 9.50535 37.055 8.95425 36.9659 8.39874C36.8908 7.93582 36.8955 7.93141 36.3981 7.93141C35.957 7.93141 35.5113 7.93141 35.0702 7.93141C34.9388 7.93141 34.8825 7.96668 34.8591 8.09894C34.7605 8.70295 34.6479 9.30696 34.54 9.91097C34.5306 9.95946 34.5165 10.008 34.5024 10.0653H32.9493C33.5452 7.01878 34.1364 3.98111 34.7324 0.921387H34.723ZM35.9242 2.39834C35.9242 2.39834 35.8914 2.39834 35.8726 2.39834C35.6333 3.73862 35.394 5.07449 35.1547 6.428H36.6187C36.384 5.07449 36.1541 3.73862 35.9242 2.40275V2.39834Z" fill="white"/>
<path d="M19.7968 0.93457H22.4385C22.9735 3.96784 23.5084 7.00551 24.048 10.0608H22.3212C22.1992 9.35982 22.0772 8.65882 21.9506 7.94018C21.5611 7.94018 21.1857 7.94018 20.815 7.94018C20.5898 7.94018 20.3646 7.94459 20.1393 7.94018C20.0126 7.94018 19.9469 7.96663 19.9282 8.10331C19.8296 8.69409 19.7217 9.28487 19.6138 9.87565C19.6044 9.93738 19.5856 9.9991 19.5716 10.0696H18.0137C18.6096 7.01874 19.2009 3.98106 19.7968 0.938979V0.93457ZM21.0027 2.41593C21.0027 2.41593 20.9652 2.41593 20.9417 2.41593C20.7024 3.7474 20.4678 5.07886 20.2285 6.41914H21.6925C21.4579 5.07004 21.2279 3.74299 21.0027 2.41593Z" fill="white"/>
<path d="M14.6822 10.0741C14.6822 9.23201 14.6587 8.42078 14.6916 7.61397C14.7197 6.8777 14.5883 6.18111 14.3396 5.4801C13.8188 4.03842 13.3496 2.58351 12.8569 1.13301C12.8381 1.07129 12.8193 1.01397 12.7959 0.921386C13.1572 0.921386 13.4997 0.921386 13.847 0.921386C14.0534 0.921386 14.3162 0.872889 14.457 0.965474C14.593 1.05365 14.6071 1.30495 14.6634 1.48571C14.9684 2.41157 15.2687 3.33742 15.5737 4.25886C15.5925 4.31618 15.6206 4.36908 15.6582 4.47048C15.7004 4.37349 15.7239 4.31618 15.7473 4.26327C16.1321 3.20956 16.5169 2.15586 16.8923 1.09774C16.9392 0.961065 17.0096 0.912568 17.1644 0.912568C17.6102 0.921386 18.0606 0.912568 18.5346 0.912568C18.4923 1.04042 18.4595 1.15064 18.4219 1.25646C17.8307 2.88331 17.2348 4.51016 16.6483 6.13702C16.6013 6.27369 16.5732 6.42359 16.5732 6.56467C16.5685 7.65365 16.5685 8.74704 16.5732 9.83601C16.5732 10.0035 16.5356 10.0697 16.3386 10.0653C15.7943 10.052 15.2546 10.0609 14.6869 10.0609L14.6822 10.0741Z" fill="white"/>
<path d="M5.87944 0C9.1312 0 11.7589 2.46012 11.7589 5.4978C11.7589 8.53988 9.11713 11.0088 5.86068 11C2.61361 10.9912 0 8.53547 0 5.48898C0 2.44689 2.63238 0 5.87944 0ZM5.87944 10.7752C8.99982 10.7752 11.529 8.40762 11.5243 5.49339C11.5196 2.57475 8.99044 0.220441 5.87006 0.22485C2.75438 0.22485 0.243999 2.57916 0.239307 5.49339C0.239307 8.41643 2.75438 10.7752 5.87944 10.7752Z" fill="white"/>
<path d="M5.87475 0.824463C8.63382 0.824463 10.872 2.91865 10.872 5.49781C10.872 8.07697 8.63851 10.1712 5.87944 10.1756C3.12507 10.1756 0.886844 8.08579 0.886844 5.50222C0.886844 2.91865 3.12507 0.824463 5.87475 0.824463ZM2.99368 3.07296C2.90453 3.22286 2.82007 3.35953 2.73561 3.50062C3.47699 3.90182 4.19491 4.28979 4.91283 4.67777C5.0536 4.75272 5.12399 4.94671 5.0536 5.06134C4.97852 5.17597 4.78145 5.20683 4.63129 5.12306C3.96968 4.76595 3.31276 4.40883 2.65115 4.05172C2.59015 4.01645 2.52445 3.98999 2.44938 3.95472C2.36022 4.10021 2.28046 4.23248 2.1913 4.37356C2.88576 4.74831 3.56614 5.11865 4.25591 5.4934C4.20899 5.52426 4.19022 5.5419 4.16676 5.55072C3.74445 5.74029 3.44884 6.01364 3.34091 6.46334C3.2893 6.67056 3.06407 6.77196 2.83884 6.70583C2.68399 6.66174 2.59953 6.70583 2.50569 6.81164C2.28984 7.05853 2.05992 7.29661 1.84407 7.53909C1.80653 7.58318 1.78776 7.6449 1.75961 7.70222C1.8253 7.71544 1.89569 7.74631 1.96138 7.73749C2.32269 7.68017 2.68399 7.61845 3.0453 7.5435C3.11099 7.53027 3.19076 7.45092 3.21422 7.38919C3.32214 7.10262 3.49576 7.00122 3.80545 7.08057C4.14799 7.17316 4.46237 7.12907 4.76737 6.96154C4.85652 6.91304 4.95037 6.86454 5.07706 6.79841V9.03368H5.59791C5.59791 8.94991 5.59791 8.88378 5.59791 8.81324C5.59791 8.11224 5.59791 7.40683 5.59791 6.70583C5.59791 6.53829 5.73868 6.37076 5.87944 6.37957C6.02491 6.38398 6.1516 6.5427 6.1516 6.71905C6.1516 7.42005 6.1516 8.12546 6.1516 8.82647C6.1516 8.8926 6.1516 8.96314 6.1516 9.03809H6.67713V6.83809C6.71467 6.83809 6.72875 6.83809 6.73813 6.83809C6.77098 6.85132 6.79913 6.86454 6.82729 6.88218C7.19329 7.11144 7.57336 7.19961 8.00975 7.06735C8.23967 6.99681 8.43675 7.13789 8.5259 7.36715C8.55405 7.43769 8.62444 7.53027 8.69482 7.5435C9.06551 7.62286 9.4409 7.68458 9.81628 7.7419C9.8679 7.75072 9.9242 7.71985 9.98051 7.70663C9.96174 7.65813 9.95236 7.59641 9.91951 7.55673C9.68489 7.2922 9.45028 7.02767 9.1969 6.77196C9.14528 6.71905 9.02797 6.68819 8.9529 6.70142C8.63851 6.75432 8.45551 6.66174 8.37105 6.37076C8.2819 6.04891 8.08951 5.81084 7.77513 5.65212C7.68128 5.60362 7.59213 5.55072 7.48421 5.48899C8.18336 5.10983 8.86374 4.73949 9.5582 4.36474C9.46436 4.21043 9.3799 4.08258 9.29543 3.94591C9.22036 3.98558 9.15936 4.01204 9.10305 4.04731C8.43674 4.40883 7.77044 4.76595 7.10413 5.12747C6.96806 5.20242 6.74752 5.15392 6.68652 5.0437C6.62552 4.92466 6.69121 4.75713 6.83667 4.67777C7.10413 4.53228 7.3669 4.3912 7.63436 4.25011C8.09421 4.00322 8.54936 3.75192 9.02328 3.49621C8.93413 3.35072 8.85436 3.21845 8.76051 3.07296C8.06605 3.44771 7.39036 3.81364 6.68652 4.18839C6.68183 4.11344 6.67244 4.07817 6.67713 4.0429C6.70998 3.62406 6.59737 3.26695 6.25483 2.97156C6.07652 2.81725 6.09998 2.5924 6.27829 2.42486C6.36275 2.3455 6.40498 2.27056 6.36275 2.15593C6.23606 1.83408 6.11875 1.50783 5.99206 1.18599C5.97329 1.13749 5.92167 1.10663 5.88414 1.06695C5.8466 1.10663 5.79029 1.13749 5.77152 1.18158C5.64014 1.51224 5.51345 1.83849 5.40083 2.17356C5.38206 2.23528 5.40083 2.3411 5.45245 2.38959C5.67768 2.6409 5.67768 2.82166 5.42898 3.05532C5.19437 3.27577 5.08175 3.53589 5.07706 3.8445C5.07706 3.95031 5.07706 4.05613 5.07706 4.1928C4.36853 3.81364 3.70222 3.44771 2.99838 3.07296H2.99368Z" fill="white"/>
<path d="M6.15629 4.07809C6.15629 4.16186 6.15629 4.24563 6.15629 4.32499C6.15629 4.46166 6.00144 4.62038 5.87475 4.61597C5.74806 4.61597 5.6026 4.46166 5.6026 4.32058C5.6026 4.13541 5.6026 3.95024 5.6026 3.76507C5.6026 3.60194 5.68706 3.49172 5.86537 3.48731C6.04837 3.47849 6.13752 3.58871 6.1469 3.74743C6.15629 3.85324 6.1469 3.96346 6.1469 4.07368L6.15629 4.07809Z" fill="white"/>
<path d="M7.77513 6.32675C7.77044 6.57365 7.57336 6.68828 7.37629 6.6001C7.16513 6.4987 6.94459 6.4017 6.7616 6.26062C6.69121 6.20771 6.66306 6.02254 6.70529 5.94759C6.7569 5.85942 6.8836 5.74479 7.04313 5.83296C7.23552 5.93878 7.43729 6.03577 7.62028 6.15481C7.69536 6.20331 7.73759 6.29589 7.76575 6.33116L7.77513 6.32675Z" fill="white"/>
<path d="M5.13337 6.0931C5.0536 6.18128 5.00668 6.25623 4.94099 6.29591C4.78145 6.3929 4.61252 6.48108 4.44829 6.56485C4.2606 6.66184 4.11045 6.6398 4.0166 6.50312C3.92276 6.36204 3.97907 6.22537 4.18083 6.11515C4.34037 6.02697 4.5046 5.95202 4.65476 5.85503C4.76268 5.78889 4.85652 5.78008 4.94568 5.86384C5.00668 5.92116 5.0536 5.99611 5.13337 6.0931Z" fill="white"/>
<path d="M5.56037 5.49347C5.56037 5.34357 5.72929 5.17163 5.87944 5.17163C6.0296 5.17163 6.19852 5.34357 6.19852 5.49347C6.19852 5.64778 6.04367 5.81532 5.88883 5.82414C5.73398 5.83295 5.56037 5.6566 5.56506 5.49347H5.56037Z" fill="white"/>
</g>
<defs>
<clipPath id="clip0_5_900">
<rect width="52" height="11" fill="white"/>
</clipPath>
</defs>
</svg>
